# Blender 3.6.5
# www.blender.org
mtllib pacman.mtl
o Icosphere
v 0.000000 -1.000000 0.000000
v 0.723607 -0.447220 0.525725
v -0.894426 -0.447216 0.000000
v -0.276388 -0.447220 -0.850649
v 0.723607 -0.447220 -0.525725
v -0.723607 0.447220 0.525725
v -0.723607 0.447220 -0.525725
v 0.276388 0.447220 -0.850649
v 0.894426 0.447216 -0.000000
v 0.000000 1.000000 -0.000000
v 0.425323 -0.850654 0.309011
v -0.162456 -0.850654 0.499995
v 0.425323 -0.850654 -0.309011
v 0.850648 -0.525736 0.000000
v -0.688189 -0.525736 0.499997
v -0.525730 -0.850652 0.000000
v -0.688189 -0.525736 -0.499997
v -0.162456 -0.850654 -0.499995
v 0.262869 -0.525738 -0.809012
v 0.951058 -0.000000 -0.309013
v -0.951058 -0.000000 -0.309013
v -0.587786 -0.000000 -0.809017
v 0.000000 -0.000000 -1.000000
v 0.587786 -0.000000 -0.809017
v 0.688189 0.525736 0.499997
v -0.850648 0.525736 -0.000000
v -0.262869 0.525738 -0.809012
v 0.688189 0.525736 -0.499997
v 0.525730 0.850652 -0.000000
v 0.162456 0.850654 0.499995
v -0.425323 0.850654 0.309011
v -0.425323 0.850654 -0.309011
v 0.162456 0.850654 -0.499995
v 0.779061 -0.338185 0.472889
v 0.922253 -0.150817 0.220367
v -0.802800 -0.296514 0.416728
v -0.932926 -0.143183 0.210078
v 0.709180 -0.399716 0.555817
v -0.951058 0.000000 0.017105
v 0.484611 0.486921 0.673346
v 0.246986 0.551333 0.760157
v -0.479266 0.488860 0.675959
v -0.277306 0.554613 0.764577
v 0.215406 -0.561996 0.774528
v -0.246986 -0.551333 0.760157
v 0.277306 -0.554613 0.764577
v 0.479266 -0.488860 0.675959
v -0.484611 -0.486921 0.673346
v 0.932926 0.143183 0.210078
v 0.951058 0.000000 0.017105
v -0.709180 0.399716 0.555816
v -0.779061 0.338185 0.472889
v -0.665923 -0.409147 0.568527
v 0.665923 0.409147 0.568527
v 0.802800 0.296514 0.416728
v -0.922253 0.150817 0.220367
v -0.215406 0.561997 0.774528
vn 0.1024 -0.9435 0.3151
vn 0.7002 -0.6617 0.2680
vn -0.2680 -0.9435 0.1947
vn -0.2680 -0.9435 -0.1947
vn 0.1024 -0.9435 -0.3151
vn 0.9050 -0.3304 0.2680
vn -0.8897 -0.3304 0.3151
vn -0.5746 -0.3304 -0.7488
vn 0.5346 -0.3304 -0.7779
vn 0.8026 -0.1256 0.5831
vn -0.9921 -0.1256 -0.0000
vn -0.3066 -0.1256 -0.9435
vn 0.8026 -0.1256 -0.5831
vn 0.4089 0.6617 0.6284
vn -0.4713 0.6617 0.5831
vn -0.7002 0.6617 -0.2680
vn 0.0385 0.6617 -0.7488
vn 0.7240 0.6617 -0.1947
vn -0.0385 -0.6617 0.7488
vn 0.1876 -0.7947 0.5773
vn 0.4713 -0.6617 0.5831
vn 0.7002 -0.6617 -0.2680
vn 0.6071 -0.7947 -0.0000
vn 0.3313 -0.9435 -0.0000
vn -0.7240 -0.6617 0.1947
vn -0.4911 -0.7947 0.3568
vn -0.4089 -0.6617 0.6284
vn -0.4089 -0.6617 -0.6284
vn -0.4911 -0.7947 -0.3568
vn -0.7240 -0.6617 -0.1947
vn 0.4713 -0.6617 -0.5831
vn 0.1876 -0.7947 -0.5773
vn -0.0385 -0.6617 -0.7488
vn 0.9921 0.1256 -0.0000
vn 0.9822 -0.1876 -0.0000
vn 0.9050 -0.3304 -0.2680
vn 0.5346 -0.3304 0.7779
vn -0.8026 0.1256 0.5831
vn -0.7947 -0.1876 0.5773
vn -0.5746 -0.3304 0.7488
vn -0.8026 0.1256 -0.5831
vn -0.7947 -0.1876 -0.5773
vn -0.8897 -0.3304 -0.3151
vn 0.3066 0.1256 -0.9435
vn 0.3035 -0.1876 -0.9342
vn 0.0247 -0.3304 -0.9435
vn 0.5746 0.3304 0.7488
vn 0.7947 0.1876 0.5773
vn 0.8897 0.3304 0.3151
vn -0.5346 0.3304 0.7779
vn -0.9050 0.3304 -0.2680
vn -0.9822 0.1876 -0.0000
vn -0.9050 0.3304 0.2680
vn -0.0247 0.3304 -0.9435
vn -0.3035 0.1876 -0.9342
vn -0.5346 0.3304 -0.7779
vn 0.8897 0.3304 -0.3151
vn 0.7947 0.1876 -0.5773
vn 0.5746 0.3304 -0.7488
vn 0.2680 0.9435 0.1947
vn 0.4911 0.7947 0.3568
vn 0.7240 0.6617 0.1947
vn -0.1024 0.9435 0.3151
vn -0.1876 0.7947 0.5773
vn 0.0385 0.6617 0.7488
vn -0.3313 0.9435 -0.0000
vn -0.6071 0.7947 -0.0000
vn -0.7002 0.6617 0.2680
vn -0.1024 0.9435 -0.3151
vn -0.1876 0.7947 -0.5773
vn -0.4713 0.6617 -0.5831
vn 0.2680 0.9435 -0.1947
vn 0.4911 0.7947 -0.3568
vn 0.4089 0.6617 -0.6284
vn -0.0000 -0.8031 0.5959
vn -0.0000 0.8031 0.5959
vt 0.194767 0.892391
vt 0.205825 0.796643
vt 0.294076 0.836727
vt 0.392861 0.758866
vt 0.392861 0.882659
vt 0.110211 0.815955
vt 0.158472 0.712693
vt 0.271600 0.725450
vt 0.230581 0.341262
vt 0.247409 0.420174
vt 0.228463 0.364328
vt 0.375357 0.202247
vt 0.309121 0.162267
vt 0.347183 0.141463
vt 0.493319 0.318885
vt 0.442032 0.257470
vt 0.548340 0.256209
vt 0.397986 0.402164
vt 0.463376 0.367384
vt 0.481008 0.457571
vt 0.219997 0.340090
vt 0.395601 0.135509
vt 0.464517 0.160839
vt 0.586007 0.387930
vt 0.343728 0.480146
vt 0.707137 0.674836
vt 0.599764 0.638637
vt 0.655571 0.643212
vt 0.392861 0.728208
vt 0.488329 0.662258
vt 0.491646 0.774141
vt 0.440907 0.966089
vt 0.392861 0.852001
vt 0.514121 0.885417
vt 0.679959 0.992738
vt 0.558426 1.000000
vt 0.627249 0.898174
vt 0.785721 0.772652
vt 0.751262 0.893301
vt 0.675511 0.794912
vt 0.185957 0.972230
vt 0.286228 0.952032
vt 0.297393 0.948610
vt 0.344814 0.644778
vt 0.078584 0.936032
vt 0.000000 0.838215
vt 0.130150 0.967655
vt 0.034460 0.717567
vt 0.105763 0.618129
vt 0.227296 0.610867
vt 0.279438 0.456783
vt 0.238979 0.578634
vt 0.227363 0.481578
vt 0.310841 0.381155
vt 0.216143 0.304779
vt 0.241571 0.013981
vt 0.245559 0.000000
vt 0.267100 0.027510
vt 0.271783 0.185210
vt 0.289955 0.200480
vt 0.249501 0.207325
vt 0.604562 0.131369
vt 0.617757 0.497238
vt 0.076926 0.440940
vt 0.061534 0.472487
vt 0.031114 0.373684
vt 0.131450 0.456522
vt 0.241571 0.013981
vt 0.146360 0.042983
vt 0.449224 0.000000
vt 0.366993 0.080468
vt 0.695428 0.313278
vt 0.442967 0.610867
vt 0.590954 0.718476
vt 0.579896 0.814224
vt 0.499493 0.658836
vt 0.677087 0.263807
vt 0.603242 0.192405
vt 0.420897 0.191677
vt 0.332176 0.486193
vt 0.602183 0.558323
vt 0.737765 0.375000
vt 0.443318 0.687446
vt 0.342403 0.923422
vt 0.558747 0.168250
vt 0.476233 0.164251
vt 0.464377 0.167020
vt 0.364229 0.225107
vt 0.342185 0.248181
vt 0.287197 0.318444
vt 0.262235 0.375000
vt 0.719064 0.321306
vt 0.641256 0.221570
vt 0.649793 0.524893
vt 0.668413 0.501819
vt 0.716070 0.431556
vt 0.283738 0.428694
vt 0.374635 0.528430
vt 0.419663 0.557595
vt 0.469984 0.581750
vt 0.552932 0.585749
vt 0.563777 0.582980
s 0
f 12/1/1 1/2/1 11/3/1
f 11/3/2 14/4/2 2/5/2
f 12/1/3 16/6/3 1/2/3
f 1/2/4 16/6/4 18/7/4
f 1/2/5 18/7/5 13/8/5
f 2/9/6 35/10/6 34/11/6
f 3/12/7 36/13/7 37/14/7
f 4/15/8 17/16/8 22/17/8
f 5/18/9 19/19/9 24/20/9
f 38/21/10 2/9/10 34/11/10
f 3/12/11 39/22/11 21/23/11
f 4/15/12 22/17/12 23/24/12
f 5/18/13 24/20/13 20/25/13
f 25/26/14 41/27/14 40/28/14
f 6/29/15 43/30/15 31/31/15
f 7/32/16 26/33/16 32/34/16
f 8/35/17 27/36/17 33/37/17
f 9/38/18 28/39/18 29/40/18
f 45/41/19 12/1/19 44/42/19
f 44/42/20 11/3/20 46/43/20
f 2/5/21 46/43/21 11/3/21
f 14/4/22 13/8/22 5/44/22
f 11/3/23 13/8/23 14/4/23
f 1/2/24 13/8/24 11/3/24
f 15/45/25 3/46/25 16/6/25
f 15/45/26 16/6/26 12/1/26
f 15/45/27 45/41/27 48/47/27
f 18/7/28 17/48/28 4/49/28
f 18/7/29 16/6/29 17/48/29
f 16/6/30 3/46/30 17/48/30
f 13/8/31 19/50/31 5/44/31
f 13/8/32 18/7/32 19/50/32
f 18/7/33 4/49/33 19/50/33
f 50/51/34 9/52/34 49/53/34
f 14/54/35 50/51/35 35/10/35
f 14/54/36 5/18/36 20/25/36
f 2/9/37 38/21/37 47/55/37
f 51/56/38 6/57/38 52/58/38
f 53/59/39 36/13/39 15/60/39
f 53/59/40 15/60/40 48/61/40
f 22/17/41 21/23/41 7/62/41
f 22/17/42 17/16/42 21/23/42
f 17/16/43 3/12/43 21/23/43
f 24/20/44 23/24/44 8/63/44
f 24/20/45 19/19/45 23/24/45
f 19/19/46 4/15/46 23/24/46
f 54/64/47 25/65/47 40/66/47
f 54/64/48 55/67/48 25/65/48
f 9/52/49 55/67/49 49/53/49
f 6/57/50 51/68/50 42/69/50
f 21/23/51 26/70/51 7/62/51
f 26/70/52 39/22/52 56/71/52
f 6/57/53 56/71/53 52/58/53
f 23/24/54 27/72/54 8/63/54
f 23/24/55 22/17/55 27/72/55
f 22/17/56 7/62/56 27/72/56
f 20/25/57 28/73/57 9/52/57
f 20/25/58 24/20/58 28/73/58
f 24/20/59 8/63/59 28/73/59
f 30/74/60 29/40/60 10/75/60
f 30/74/61 25/26/61 29/40/61
f 25/26/62 9/38/62 29/40/62
f 31/31/63 30/74/63 10/75/63
f 31/31/64 57/76/64 30/74/64
f 41/27/65 30/74/65 57/76/65
f 31/31/66 10/75/66 32/34/66
f 26/33/67 31/31/67 32/34/67
f 6/29/68 31/31/68 26/33/68
f 33/37/69 32/34/69 10/75/69
f 33/37/70 27/36/70 32/34/70
f 27/36/71 7/32/71 32/34/71
f 29/40/72 33/37/72 10/75/72
f 29/40/73 28/39/73 33/37/73
f 28/39/74 8/35/74 33/37/74
f 2/9/6 14/54/6 35/10/6
f 3/12/7 15/60/7 36/13/7
f 3/12/11 37/14/11 39/22/11
f 25/26/14 30/74/14 41/27/14
f 6/29/15 42/83/15 43/30/15
f 44/42/20 12/1/20 11/3/20
f 2/5/21 47/84/21 46/43/21
f 15/45/27 12/1/27 45/41/27
f 50/51/34 20/25/34 9/52/34
f 14/54/35 20/25/35 50/51/35
f 9/52/49 25/65/49 55/67/49
f 26/70/52 21/23/52 39/22/52
f 6/57/53 26/70/53 56/71/53
f 31/31/64 43/30/64 57/76/64
f 55/77/75 40/78/75 42/79/75
f 36/80/76 47/81/76 50/82/76
f 41/85/75 57/86/75 42/79/75
f 57/86/75 43/87/75 42/79/75
f 42/79/75 51/88/75 52/89/75
f 56/90/75 42/79/75 52/89/75
f 56/90/75 39/91/75 42/79/75
f 39/91/75 50/82/75 55/77/75
f 50/82/75 49/92/75 55/77/75
f 55/77/75 54/93/75 40/78/75
f 40/78/75 41/85/75 42/79/75
f 55/77/75 42/79/75 39/91/75
f 47/81/76 38/94/76 34/95/76
f 34/95/76 35/96/76 47/81/76
f 35/96/76 50/82/76 47/81/76
f 50/82/76 39/91/76 36/80/76
f 39/91/76 37/97/76 36/80/76
f 36/80/76 53/98/76 48/99/76
f 47/81/76 48/99/76 45/100/76
f 36/80/76 48/99/76 47/81/76
f 45/100/76 44/101/76 47/81/76
f 44/101/76 46/102/76 47/81/76
